<svg xmlns="http://www.w3.org/2000/svg" width="860" height="680" viewBox="0 0 860 680" font-family="'Segoe UI', Arial, sans-serif">

  <!-- Background -->
  <rect width="860" height="680" rx="16" fill="#0f1117"/>

  <!-- Title -->
  <text x="430" y="38" text-anchor="middle" fill="#e2e8f0" font-size="18" font-weight="700">LLM Providers Supported by OpenClaw</text>
  <text x="430" y="58" text-anchor="middle" fill="#475569" font-size="11">30+ providers across 3 groups</text>

  <!-- ══════════════════════════════════════════
       GROUP 1 — Big Cloud AI Services
  ══════════════════════════════════════════ -->
  <rect x="20" y="74" width="820" height="178" rx="14" fill="#0d1526" stroke="#3b82f6" stroke-width="2"/>
  <!-- Group label badge -->
  <rect x="36" y="64" width="246" height="22" rx="6" fill="#1d4ed8"/>
  <text x="159" y="79" text-anchor="middle" fill="#bfdbfe" font-size="11" font-weight="700">Group 1 — Big Cloud AI Services</text>

  <!-- Chips row 1 -->
  <!-- Anthropic -->
  <rect x="36" y="96" width="102" height="28" rx="14" fill="#1e3a5f" stroke="#3b82f6" stroke-width="1.5"/>
  <text x="87" y="114" text-anchor="middle" fill="#93c5fd" font-size="11" font-weight="600">Anthropic</text>

  <!-- OpenAI -->
  <rect x="148" y="96" width="78" height="28" rx="14" fill="#1e3a5f" stroke="#3b82f6" stroke-width="1.5"/>
  <text x="187" y="114" text-anchor="middle" fill="#93c5fd" font-size="11" font-weight="600">OpenAI</text>

  <!-- Google -->
  <rect x="236" y="96" width="74" height="28" rx="14" fill="#1e3a5f" stroke="#3b82f6" stroke-width="1.5"/>
  <text x="273" y="114" text-anchor="middle" fill="#93c5fd" font-size="11" font-weight="600">Google</text>

  <!-- Google Vertex AI -->
  <rect x="320" y="96" width="130" height="28" rx="14" fill="#1e3a5f" stroke="#3b82f6" stroke-width="1.5"/>
  <text x="385" y="114" text-anchor="middle" fill="#93c5fd" font-size="11" font-weight="600">Google Vertex AI</text>

  <!-- Amazon Bedrock -->
  <rect x="460" y="96" width="134" height="28" rx="14" fill="#1e3a5f" stroke="#3b82f6" stroke-width="1.5"/>
  <text x="527" y="114" text-anchor="middle" fill="#93c5fd" font-size="11" font-weight="600">Amazon Bedrock</text>

  <!-- GitHub Copilot -->
  <rect x="604" y="96" width="126" height="28" rx="14" fill="#1e3a5f" stroke="#3b82f6" stroke-width="1.5"/>
  <text x="667" y="114" text-anchor="middle" fill="#93c5fd" font-size="11" font-weight="600">GitHub Copilot</text>

  <!-- Chips row 2 -->
  <!-- OpenAI Codex -->
  <rect x="36" y="136" width="114" height="28" rx="14" fill="#1e3a5f" stroke="#3b82f6" stroke-width="1.5"/>
  <text x="93" y="154" text-anchor="middle" fill="#93c5fd" font-size="11" font-weight="600">OpenAI Codex</text>

  <!-- NVIDIA NIM -->
  <rect x="160" y="136" width="100" height="28" rx="14" fill="#1e3a5f" stroke="#3b82f6" stroke-width="1.5"/>
  <text x="210" y="154" text-anchor="middle" fill="#93c5fd" font-size="11" font-weight="600">NVIDIA NIM</text>

  <!-- OpenRouter -->
  <rect x="270" y="136" width="100" height="28" rx="14" fill="#1e3a5f" stroke="#3b82f6" stroke-width="1.5"/>
  <text x="320" y="154" text-anchor="middle" fill="#93c5fd" font-size="11" font-weight="600">OpenRouter</text>

  <!-- Together AI -->
  <rect x="380" y="136" width="98" height="28" rx="14" fill="#1e3a5f" stroke="#3b82f6" stroke-width="1.5"/>
  <text x="429" y="154" text-anchor="middle" fill="#93c5fd" font-size="11" font-weight="600">Together AI</text>

  <!-- Venice AI -->
  <rect x="488" y="136" width="86" height="28" rx="14" fill="#1e3a5f" stroke="#3b82f6" stroke-width="1.5"/>
  <text x="531" y="154" text-anchor="middle" fill="#93c5fd" font-size="11" font-weight="600">Venice AI</text>

  <!-- Vercel AI Gateway -->
  <rect x="584" y="136" width="148" height="28" rx="14" fill="#1e3a5f" stroke="#3b82f6" stroke-width="1.5"/>
  <text x="658" y="154" text-anchor="middle" fill="#93c5fd" font-size="11" font-weight="600">Vercel AI Gateway</text>

  <!-- Chips row 3 -->
  <!-- Cloudflare AI Gateway -->
  <rect x="36" y="176" width="178" height="28" rx="14" fill="#1e3a5f" stroke="#3b82f6" stroke-width="1.5"/>
  <text x="125" y="194" text-anchor="middle" fill="#93c5fd" font-size="11" font-weight="600">Cloudflare AI Gateway</text>

  <!-- HuggingFace -->
  <rect x="224" y="176" width="108" height="28" rx="14" fill="#1e3a5f" stroke="#3b82f6" stroke-width="1.5"/>
  <text x="278" y="194" text-anchor="middle" fill="#93c5fd" font-size="11" font-weight="600">HuggingFace</text>

  <!-- Kilocode -->
  <rect x="342" y="176" width="88" height="28" rx="14" fill="#1e3a5f" stroke="#3b82f6" stroke-width="1.5"/>
  <text x="386" y="194" text-anchor="middle" fill="#93c5fd" font-size="11" font-weight="600">Kilocode</text>

  <!-- ZAI -->
  <rect x="440" y="176" width="56" height="28" rx="14" fill="#1e3a5f" stroke="#3b82f6" stroke-width="1.5"/>
  <text x="468" y="194" text-anchor="middle" fill="#93c5fd" font-size="11" font-weight="600">ZAI</text>

  <!-- xAI (Grok) -->
  <rect x="506" y="176" width="96" height="28" rx="14" fill="#1e3a5f" stroke="#3b82f6" stroke-width="1.5"/>
  <text x="554" y="194" text-anchor="middle" fill="#93c5fd" font-size="11" font-weight="600">xAI (Grok)</text>

  <!-- Mistral -->
  <rect x="612" y="176" width="80" height="28" rx="14" fill="#1e3a5f" stroke="#3b82f6" stroke-width="1.5"/>
  <text x="652" y="194" text-anchor="middle" fill="#93c5fd" font-size="11" font-weight="600">Mistral</text>

  <!-- count badge -->
  <rect x="740" y="176" width="84" height="28" rx="14" fill="#1d4ed8" opacity="0.5"/>
  <text x="782" y="194" text-anchor="middle" fill="#bfdbfe" font-size="11" font-weight="700">17 providers</text>


  <!-- ══════════════════════════════════════════
       GROUP 2 — Asian / Regional
  ══════════════════════════════════════════ -->
  <rect x="20" y="284" width="820" height="138" rx="14" fill="#1a0d26" stroke="#a855f7" stroke-width="2"/>
  <!-- Group label badge -->
  <rect x="36" y="274" width="254" height="22" rx="6" fill="#7e22ce"/>
  <text x="163" y="289" text-anchor="middle" fill="#e9d5ff" font-size="11" font-weight="700">Group 2 — Asian / Regional Cloud</text>

  <!-- Chips row 1 -->
  <!-- MiniMax -->
  <rect x="36" y="306" width="86" height="28" rx="14" fill="#2d1a3d" stroke="#a855f7" stroke-width="1.5"/>
  <text x="79" y="324" text-anchor="middle" fill="#d8b4fe" font-size="11" font-weight="600">MiniMax</text>

  <!-- MiniMax Portal -->
  <rect x="132" y="306" width="124" height="28" rx="14" fill="#2d1a3d" stroke="#a855f7" stroke-width="1.5"/>
  <text x="194" y="324" text-anchor="middle" fill="#d8b4fe" font-size="11" font-weight="600">MiniMax Portal</text>

  <!-- Moonshot (Kimi) -->
  <rect x="266" y="306" width="134" height="28" rx="14" fill="#2d1a3d" stroke="#a855f7" stroke-width="1.5"/>
  <text x="333" y="324" text-anchor="middle" fill="#d8b4fe" font-size="11" font-weight="600">Moonshot (Kimi)</text>

  <!-- Kimi Coding -->
  <rect x="410" y="306" width="108" height="28" rx="14" fill="#2d1a3d" stroke="#a855f7" stroke-width="1.5"/>
  <text x="464" y="324" text-anchor="middle" fill="#d8b4fe" font-size="11" font-weight="600">Kimi Coding</text>

  <!-- Qwen Portal -->
  <rect x="528" y="306" width="108" height="28" rx="14" fill="#2d1a3d" stroke="#a855f7" stroke-width="1.5"/>
  <text x="582" y="324" text-anchor="middle" fill="#d8b4fe" font-size="11" font-weight="600">Qwen Portal</text>

  <!-- Alibaba ModelStudio -->
  <rect x="646" y="306" width="174" height="28" rx="14" fill="#2d1a3d" stroke="#a855f7" stroke-width="1.5"/>
  <text x="733" y="324" text-anchor="middle" fill="#d8b4fe" font-size="11" font-weight="600">Alibaba ModelStudio</text>

  <!-- Chips row 2 -->
  <!-- Baidu Qianfan -->
  <rect x="36" y="346" width="128" height="28" rx="14" fill="#2d1a3d" stroke="#a855f7" stroke-width="1.5"/>
  <text x="100" y="364" text-anchor="middle" fill="#d8b4fe" font-size="11" font-weight="600">Baidu Qianfan</text>

  <!-- Volcengine / Doubao -->
  <rect x="174" y="346" width="160" height="28" rx="14" fill="#2d1a3d" stroke="#a855f7" stroke-width="1.5"/>
  <text x="254" y="364" text-anchor="middle" fill="#d8b4fe" font-size="11" font-weight="600">Volcengine / Doubao</text>

  <!-- BytePlus -->
  <rect x="344" y="346" width="88" height="28" rx="14" fill="#2d1a3d" stroke="#a855f7" stroke-width="1.5"/>
  <text x="388" y="364" text-anchor="middle" fill="#d8b4fe" font-size="11" font-weight="600">BytePlus</text>

  <!-- Xiaomi MiMo -->
  <rect x="442" y="346" width="116" height="28" rx="14" fill="#2d1a3d" stroke="#a855f7" stroke-width="1.5"/>
  <text x="500" y="364" text-anchor="middle" fill="#d8b4fe" font-size="11" font-weight="600">Xiaomi MiMo</text>

  <!-- count badge -->
  <rect x="746" y="346" width="78" height="28" rx="14" fill="#7e22ce" opacity="0.5"/>
  <text x="785" y="364" text-anchor="middle" fill="#e9d5ff" font-size="11" font-weight="700">10 providers</text>


  <!-- ══════════════════════════════════════════
       GROUP 3 — Local / Self-Hosted
  ══════════════════════════════════════════ -->
  <rect x="20" y="458" width="820" height="110" rx="14" fill="#0a1f14" stroke="#22c55e" stroke-width="2"/>
  <!-- Group label badge -->
  <rect x="36" y="448" width="250" height="22" rx="6" fill="#14532d"/>
  <text x="161" y="463" text-anchor="middle" fill="#bbf7d0" font-size="11" font-weight="700">Group 3 — Local / Self-Hosted</text>

  <!-- Chips -->
  <!-- Ollama -->
  <rect x="36" y="478" width="78" height="28" rx="14" fill="#14291e" stroke="#22c55e" stroke-width="1.5"/>
  <text x="75" y="496" text-anchor="middle" fill="#86efac" font-size="11" font-weight="600">Ollama</text>

  <!-- vLLM -->
  <rect x="124" y="478" width="66" height="28" rx="14" fill="#14291e" stroke="#22c55e" stroke-width="1.5"/>
  <text x="157" y="496" text-anchor="middle" fill="#86efac" font-size="11" font-weight="600">vLLM</text>

  <!-- SGLang -->
  <rect x="200" y="478" width="80" height="28" rx="14" fill="#14291e" stroke="#22c55e" stroke-width="1.5"/>
  <text x="240" y="496" text-anchor="middle" fill="#86efac" font-size="11" font-weight="600">SGLang</text>

  <!-- LiteLLM -->
  <rect x="290" y="478" width="80" height="28" rx="14" fill="#14291e" stroke="#22c55e" stroke-width="1.5"/>
  <text x="330" y="496" text-anchor="middle" fill="#86efac" font-size="11" font-weight="600">LiteLLM</text>

  <!-- Custom OpenAI-compatible -->
  <rect x="380" y="478" width="192" height="28" rx="14" fill="#14291e" stroke="#22c55e" stroke-width="1.5"/>
  <text x="476" y="496" text-anchor="middle" fill="#86efac" font-size="11" font-weight="600">Custom OpenAI-compatible</text>

  <!-- No API key note -->
  <rect x="36" y="516" width="200" height="24" rx="6" fill="#052e16"/>
  <text x="136" y="532" text-anchor="middle" fill="#4ade80" font-size="10">No API key · No cloud · Free</text>

  <!-- count badge -->
  <rect x="748" y="516" width="76" height="24" rx="12" fill="#14532d" opacity="0.7"/>
  <text x="786" y="532" text-anchor="middle" fill="#bbf7d0" font-size="11" font-weight="700">5 providers</text>


  <!-- ══════════════════════════════════════════
       TOTAL FOOTER
  ══════════════════════════════════════════ -->
  <rect x="20" y="594" width="820" height="46" rx="10" fill="#111827" stroke="#1e293b" stroke-width="1"/>
  <text x="430" y="617" text-anchor="middle" fill="#94a3b8" font-size="12">Total: <tspan fill="#e2e8f0" font-weight="700">30+ providers</tspan>  ·  Group 1: <tspan fill="#93c5fd" font-weight="600">17</tspan>  ·  Group 2: <tspan fill="#d8b4fe" font-weight="600">10</tspan>  ·  Group 3: <tspan fill="#86efac" font-weight="600">5 (local)</tspan></text>
  <text x="430" y="633" text-anchor="middle" fill="#334155" font-size="10">+ plugin providers can be added via extensions</text>

</svg>
